<svg width="184" height="178" viewBox="0 0 184 178" fill="none" xmlns="http://www.w3.org/2000/svg">
<path d="M172.402 103.047L172.726 99.9535C173.132 99.9389 173.5 99.8607 173.829 99.7189C174.162 99.5777 174.454 99.382 174.704 99.132C174.954 98.8821 175.156 98.5843 175.312 98.2387C175.466 97.8978 175.565 97.5202 175.609 97.1057C175.687 96.357 175.569 95.6853 175.255 95.0907C174.946 94.4966 174.454 94.0096 173.78 93.6297C173.11 93.2502 172.274 93.0081 171.271 92.9032C170.239 92.7953 169.357 92.8578 168.623 93.0905C167.889 93.328 167.314 93.7058 166.898 94.2241C166.482 94.7424 166.236 95.3665 166.159 96.0964C166.117 96.5061 166.131 96.8908 166.203 97.2506C166.274 97.6151 166.399 97.9448 166.578 98.2396C166.761 98.5349 166.994 98.7878 167.277 98.9982C167.559 99.2134 167.89 99.3765 168.269 99.4875L167.931 102.58C167.275 102.43 166.656 102.163 166.072 101.779C165.493 101.399 164.989 100.916 164.56 100.328C164.136 99.7457 163.821 99.07 163.615 98.3012C163.414 97.5375 163.362 96.6918 163.459 95.7641C163.594 94.4738 164.007 93.3505 164.697 92.3944C165.387 91.443 166.316 90.7308 167.484 90.2579C168.652 89.7896 170.022 89.6377 171.595 89.8022C173.172 89.9671 174.484 90.4041 175.528 91.1132C176.573 91.8223 177.332 92.7157 177.804 93.7934C178.282 94.8716 178.454 96.0465 178.321 97.318C178.234 98.1562 178.035 98.9209 177.724 99.6121C177.414 100.308 177.003 100.91 176.493 101.419C175.988 101.927 175.392 102.322 174.705 102.603C174.019 102.888 173.251 103.036 172.402 103.047Z" fill="white"/>
<path d="M165.286 118.882C163.783 118.375 162.6 117.659 161.738 116.733C160.875 115.812 160.33 114.769 160.103 113.603C159.88 112.444 159.973 111.256 160.383 110.04C160.796 108.815 161.445 107.81 162.33 107.024C163.215 106.238 164.28 105.74 165.525 105.531C166.77 105.321 168.142 105.469 169.64 105.975C171.143 106.482 172.326 107.196 173.19 108.117C174.054 109.038 174.597 110.078 174.82 111.238C175.048 112.399 174.956 113.592 174.542 114.817C174.132 116.032 173.485 117.033 172.6 117.819C171.718 118.611 170.655 119.112 169.41 119.321C168.163 119.536 166.789 119.389 165.286 118.882ZM166.282 115.928C167.256 116.256 168.126 116.387 168.893 116.321C169.658 116.26 170.302 116.025 170.825 115.616C171.347 115.208 171.727 114.651 171.965 113.947C172.203 113.243 172.237 112.57 172.069 111.928C171.901 111.287 171.531 110.708 170.961 110.19C170.39 109.678 169.617 109.257 168.643 108.929C167.67 108.6 166.8 108.467 166.035 108.529C165.268 108.595 164.624 108.832 164.101 109.24C163.578 109.649 163.198 110.205 162.961 110.909C162.723 111.614 162.688 112.287 162.857 112.928C163.025 113.57 163.395 114.147 163.967 114.659C164.537 115.177 165.309 115.599 166.282 115.928Z" fill="white"/>
<path d="M164.218 135.449L151.682 128.072L153.029 125.783L164.129 124.972L164.183 124.88L156.293 120.237L157.852 117.587L170.388 124.964L169.019 127.29L157.951 128.061L157.886 128.171L165.77 132.811L164.218 135.449Z" fill="white"/>
<path d="M153.219 142.137C153.686 142.474 154.181 142.587 154.704 142.474C155.227 142.362 155.733 142.029 156.223 141.476C156.556 141.1 156.783 140.736 156.906 140.383C157.032 140.033 157.065 139.708 157.003 139.406C156.937 139.108 156.788 138.856 156.554 138.648C156.365 138.469 156.159 138.359 155.935 138.319C155.708 138.282 155.471 138.297 155.223 138.362C154.979 138.431 154.726 138.535 154.463 138.675C154.203 138.818 153.941 138.985 153.678 139.176L152.578 139.947C152.051 140.328 151.523 140.639 150.994 140.879C150.465 141.119 149.943 141.27 149.427 141.331C148.911 141.393 148.406 141.348 147.914 141.197C147.419 141.049 146.943 140.777 146.486 140.378C145.822 139.785 145.395 139.103 145.204 138.333C145.013 137.57 145.063 136.754 145.352 135.884C145.641 135.021 146.179 134.146 146.963 133.26C147.741 132.381 148.554 131.734 149.401 131.321C150.245 130.91 151.092 130.756 151.944 130.859C152.796 130.968 153.621 131.36 154.421 132.036L152.448 134.265C152.061 133.966 151.663 133.801 151.256 133.769C150.848 133.743 150.444 133.831 150.044 134.034C149.644 134.242 149.269 134.545 148.917 134.942C148.572 135.332 148.329 135.721 148.188 136.109C148.044 136.5 148.003 136.865 148.064 137.203C148.124 137.542 148.286 137.827 148.548 138.059C148.793 138.276 149.063 138.385 149.358 138.387C149.65 138.393 149.977 138.309 150.339 138.136C150.698 137.967 151.101 137.726 151.548 137.414L152.896 136.491C153.932 135.771 154.923 135.355 155.869 135.244C156.815 135.132 157.688 135.435 158.49 136.151C159.152 136.731 159.573 137.416 159.752 138.207C159.928 139.002 159.878 139.833 159.602 140.702C159.326 141.571 158.837 142.402 158.134 143.196C157.418 144.005 156.656 144.588 155.845 144.946C155.032 145.307 154.23 145.438 153.439 145.339C152.648 145.239 151.924 144.908 151.266 144.344L153.219 142.137Z" fill="white"/>
<path d="M144.018 155.835L141.591 157.723L135.791 150.267C135.14 149.43 134.77 148.542 134.682 147.603C134.59 146.667 134.764 145.746 135.204 144.839C135.648 143.936 136.344 143.116 137.293 142.377C138.246 141.636 139.215 141.161 140.199 140.954C141.186 140.75 142.122 140.808 143.007 141.127C143.891 141.447 144.659 142.026 145.31 142.863L151.11 150.319L148.683 152.207L143.044 144.958C142.704 144.521 142.306 144.206 141.851 144.015C141.392 143.826 140.912 143.771 140.409 143.85C139.907 143.929 139.422 144.15 138.955 144.513C138.484 144.879 138.15 145.295 137.954 145.76C137.754 146.227 137.691 146.705 137.765 147.194C137.835 147.685 138.04 148.149 138.38 148.586L144.018 155.835Z" fill="white"/>
<path d="M131.102 147.118L137.966 159.941L135.255 161.393L129.587 150.804L124.089 153.747L122.893 151.512L131.102 147.118Z" fill="white"/>
<path d="M125.867 163.402L126.684 165.803L115.376 169.653L114.559 167.253L118.774 165.818L114.903 154.449L117.781 153.469L121.652 164.838L125.867 163.402Z" fill="white"/>
<path d="M108.864 170.969L105.924 156.724L108.935 156.103L111.876 170.348L108.864 170.969Z" fill="white"/>
<path d="M92.935 172.749L91.8025 158.248L94.4507 158.041L101.472 166.675L101.579 166.667L100.866 157.54L103.932 157.301L105.064 171.802L102.374 172.012L95.402 163.381L95.2745 163.391L95.9867 172.511L92.935 172.749Z" fill="white"/>
<path d="M79.2585 166.944C79.3176 167.299 79.4213 167.619 79.5697 167.903C79.7174 168.191 79.9101 168.442 80.1476 168.656C80.3799 168.873 80.6549 169.05 80.9728 169.187C81.2859 169.323 81.64 169.414 82.0351 169.46C82.7736 169.545 83.4439 169.437 84.046 169.135C84.6433 168.832 85.1377 168.348 85.5291 167.683C85.9199 167.023 86.1735 166.189 86.2897 165.183C86.406 164.176 86.352 163.302 86.1277 162.561C85.9035 161.821 85.5329 161.232 85.0161 160.796C84.4988 160.364 83.8591 160.105 83.0971 160.017C82.4057 159.937 81.8013 159.991 81.2838 160.179C80.7612 160.371 80.3444 160.678 80.0336 161.1C79.718 161.521 79.5247 162.04 79.4535 162.656L78.8432 162.492L82.5685 162.923L82.3028 165.223L76.2564 164.524L76.4666 162.704C76.6133 161.434 77.0074 160.374 77.649 159.523C78.29 158.677 79.1094 158.062 80.1072 157.677C81.1044 157.296 82.2098 157.176 83.4233 157.316C84.7779 157.472 85.9334 157.909 86.8898 158.624C87.8457 159.345 88.5467 160.291 88.9929 161.462C89.4338 162.638 89.5663 163.988 89.3903 165.512C89.255 166.683 88.9651 167.708 88.5205 168.586C88.0707 169.468 87.5008 170.194 86.8107 170.762C86.1207 171.331 85.3472 171.735 84.4902 171.974C83.6332 172.214 82.7273 172.278 81.7724 172.168C80.954 172.073 80.2059 171.865 79.528 171.544C78.8497 171.227 78.2627 170.821 77.767 170.325C77.2667 169.829 76.877 169.262 76.5979 168.625C76.3183 167.992 76.1703 167.312 76.1541 166.586L79.2585 166.944Z" fill="white"/>
<path d="M33.8407 145.239C33.4977 145.702 33.3791 146.195 33.4849 146.72C33.5908 147.244 33.9171 147.754 34.4641 148.251C34.8357 148.588 35.1972 148.82 35.5486 148.948C35.8969 149.078 36.2221 149.114 36.5243 149.056C36.823 148.995 37.0774 148.848 37.2874 148.617C37.4694 148.431 37.5819 148.226 37.6247 148.002C37.664 147.776 37.6525 147.538 37.5902 147.29C37.5247 147.045 37.4236 146.79 37.2867 146.525C37.1467 146.264 36.9831 146 36.7959 145.735L36.0383 144.625C35.664 144.093 35.36 143.562 35.1265 143.03C34.8929 142.498 34.7485 141.974 34.6933 141.457C34.6382 140.94 34.6892 140.437 34.8465 139.946C35.0002 139.453 35.279 138.98 35.6829 138.528C36.2846 137.872 36.9716 137.454 37.7439 137.272C38.5094 137.091 39.3251 137.15 40.191 137.45C41.0503 137.75 41.9181 138.298 42.7946 139.094C43.6641 139.883 44.3005 140.704 44.7037 141.556C45.1035 142.405 45.2468 143.254 45.1338 144.104C45.0141 144.955 44.6113 145.775 43.9256 146.566L41.7221 144.566C42.0253 144.183 42.1955 143.787 42.2328 143.38C42.2634 142.973 42.1801 142.568 41.9829 142.165C41.7791 141.763 41.4809 141.383 41.0882 141.027C40.7025 140.677 40.3168 140.429 39.931 140.283C39.5416 140.135 39.1774 140.089 38.8382 140.145C38.4991 140.202 38.2118 140.36 37.9763 140.619C37.7567 140.861 37.644 141.13 37.6382 141.425C37.6288 141.717 37.7084 142.045 37.8769 142.409C38.0418 142.77 38.2777 143.176 38.5844 143.627L39.4899 144.986C40.1974 146.031 40.6009 147.027 40.7004 147.974C40.7999 148.921 40.4867 149.791 39.7608 150.584C39.1724 151.239 38.4818 151.651 37.6888 151.82C36.8924 151.986 36.0615 151.926 35.1963 151.639C34.331 151.353 33.5057 150.853 32.7203 150.14C31.921 149.415 31.3474 148.645 30.9996 147.83C30.6483 147.013 30.5273 146.209 30.6365 145.419C30.7458 144.63 31.0863 143.909 31.6582 143.258L33.8407 145.239Z" fill="white"/>
<path d="M37.2883 134.14L25.784 143.041L19.7865 135.289L21.7919 133.738L25.9076 139.057L28.6488 136.936L24.8417 132.016L26.8471 130.464L30.6542 135.385L33.4011 133.26L29.268 127.918L31.2734 126.366L37.2883 134.14Z" fill="white"/>
<path d="M30.1353 124.772L17.2273 131.477L14.5821 126.384C14.0757 125.409 13.818 124.487 13.8088 123.616C13.7932 122.744 14.0089 121.962 14.4556 121.272C14.896 120.579 15.5427 120.011 16.3957 119.568C17.2529 119.122 18.0863 118.924 18.8961 118.973C19.7016 119.024 20.4505 119.316 21.1427 119.847C21.8327 120.374 22.4353 121.134 22.9504 122.125L24.7215 125.535L22.5281 126.674L20.9862 123.706C20.7155 123.185 20.4193 122.789 20.0975 122.519C19.7756 122.248 19.4282 122.103 19.0552 122.084C18.68 122.06 18.2802 122.158 17.8558 122.379C17.4272 122.601 17.1106 122.875 16.9059 123.2C16.6991 123.521 16.6106 123.895 16.6405 124.322C16.664 124.748 16.8122 125.223 17.085 125.748L18.0409 127.589L28.7178 122.043L30.1353 124.772ZM20.6404 120.852L24.8482 114.593L26.4131 117.606L22.1692 123.796L20.6404 120.852Z" fill="white"/>
<path d="M9.65759 115.038L19.2912 108.582L19.2536 108.452L7.65857 108.149L6.70854 104.875L22.0751 105.637L23.1795 109.443L10.6096 118.319L9.65759 115.038Z" fill="white"/>
<path d="M6.06015 99.0224L20.4631 96.9913L20.8925 100.036L6.48956 102.068L6.06015 99.0224Z" fill="white"/>
<path d="M10.6258 81.9769L10.5884 85.0875C10.1853 85.1394 9.82641 85.2511 9.51183 85.4225C9.1925 85.5939 8.91993 85.8155 8.6941 86.0875C8.46828 86.3594 8.29402 86.6745 8.17132 87.0329C8.04868 87.3866 7.98486 87.7718 7.97984 88.1884C7.97078 88.9412 8.1499 89.5992 8.5172 90.1623C8.87977 90.7255 9.41429 91.1652 10.1208 91.4814C10.8225 91.7977 11.6776 91.9619 12.686 91.974C13.7229 91.9865 14.5959 91.8431 15.305 91.5439C16.0142 91.2399 16.5521 90.8107 16.9187 90.2564C17.2852 89.702 17.4729 89.0579 17.4817 88.3241C17.4867 87.9122 17.4368 87.5304 17.3322 87.1787C17.2275 86.8223 17.0727 86.5056 16.8677 86.2285C16.658 85.9513 16.4027 85.7209 16.1018 85.5374C15.801 85.3491 15.457 85.2171 15.0696 85.1414L15.1212 82.031C15.7878 82.1195 16.4293 82.3285 17.0457 82.6579C17.6573 82.9825 18.2037 83.4176 18.6849 83.9633C19.1614 84.5041 19.5372 85.1478 19.8123 85.8946C20.0827 86.6365 20.2123 87.4738 20.2011 88.4065C20.1855 89.7038 19.878 90.8602 19.2786 91.8758C18.6793 92.8867 17.8197 93.6813 16.7 94.2597C15.5803 94.8334 14.2298 95.1107 12.6485 95.0917C11.0624 95.0726 9.7167 94.7581 8.61128 94.1481C7.50585 93.5382 6.66812 92.7184 6.09808 91.6887C5.52332 90.659 5.24363 89.505 5.25901 88.2267C5.26916 87.3839 5.39693 86.6042 5.64231 85.8874C5.88776 85.1658 6.2411 84.5285 6.70234 83.9753C7.15884 83.422 7.71588 82.9741 8.37346 82.6316C9.0311 82.2844 9.78189 82.0662 10.6258 81.9769Z" fill="white"/>
<path d="M20.3794 80.1326L6.1582 77.0782L8.21631 67.4956L10.6953 68.028L9.28295 74.6039L12.6716 75.3317L13.978 69.2489L16.457 69.7813L15.1506 75.8642L18.5461 76.5934L19.9644 69.9898L22.4434 70.5222L20.3794 80.1326Z" fill="white"/>
<path d="M16.367 57.4593C15.8163 57.2913 15.3117 57.3451 14.8531 57.6207C14.3945 57.8963 14.0231 58.375 13.7388 59.0567C13.5457 59.52 13.4481 59.9385 13.4462 60.3121C13.44 60.684 13.5149 61.0025 13.6711 61.2677C13.8291 61.5285 14.0523 61.7191 14.3408 61.8393C14.5775 61.9483 14.8082 61.9855 15.033 61.9509C15.2595 61.912 15.4793 61.8216 15.6924 61.6796C15.9012 61.5357 16.1074 61.355 16.311 61.1372C16.5103 60.9176 16.7037 60.6751 16.8914 60.4096L17.6827 59.3237C18.058 58.7927 18.4569 58.3281 18.8795 57.9297C19.3021 57.5314 19.7476 57.2195 20.216 56.9942C20.6844 56.7688 21.176 56.648 21.6906 56.6317C22.2071 56.6111 22.7459 56.7152 23.3071 56.9441C24.1269 57.291 24.7518 57.7977 25.1818 58.4644C25.6092 59.1248 25.8269 59.9132 25.8347 60.8296C25.8399 61.7398 25.6148 62.7411 25.1593 63.8337C24.7074 64.9175 24.1478 65.7922 23.4804 66.4579C22.8148 67.1191 22.0626 67.5391 21.2238 67.7177C20.3824 67.8902 19.4742 67.786 18.4993 67.4052L19.6445 64.6585C20.1073 64.8156 20.5369 64.8433 20.9332 64.7418C21.327 64.6341 21.6805 64.4198 21.9938 64.099C22.3045 63.772 22.562 63.3638 22.766 62.8743C22.9665 62.3936 23.0705 61.9471 23.0783 61.5348C23.0879 61.1181 23.0091 60.7596 22.842 60.459C22.6749 60.1585 22.4296 59.9408 22.1062 59.806C21.8047 59.6803 21.5138 59.6642 21.2337 59.7577C20.9555 59.8469 20.6731 60.0319 20.3868 60.3126C20.1023 60.589 19.799 60.9473 19.4769 61.3876L18.5003 62.6964C17.7531 63.7135 16.95 64.4277 16.0911 64.8391C15.2322 65.2504 14.3076 65.2471 13.3174 64.8292C12.5027 64.4946 11.8827 63.9822 11.4575 63.2919C11.0341 62.5973 10.8122 61.7943 10.792 60.883C10.7719 59.9717 10.9658 59.0266 11.374 58.0477C11.7894 57.0513 12.3224 56.2527 12.9731 55.6519C13.6255 55.0467 14.342 54.6631 15.1226 54.5012C15.9031 54.3393 16.696 54.4185 17.5013 54.7389L16.367 57.4593Z" fill="white"/>
<path d="M79.3322 11.2852L76.2952 11.9589C76.1526 11.5783 75.9619 11.2545 75.7232 10.9873C75.4835 10.7155 75.2055 10.5008 74.8892 10.343C74.5729 10.1852 74.2263 10.0875 73.8493 10.0499C73.477 10.0112 73.0874 10.037 72.6807 10.1272C71.9457 10.2903 71.346 10.6149 70.8815 11.1011C70.4161 11.5826 70.11 12.2034 69.9634 12.9634C69.8157 13.7188 69.8511 14.5888 70.0695 15.5734C70.294 16.5857 70.6329 17.4029 71.0862 18.025C71.5441 18.6461 72.0847 19.0718 72.7081 19.3021C73.3315 19.5324 74.0014 19.5681 74.7179 19.4092C75.12 19.32 75.4803 19.1843 75.7988 19.0021C76.1219 18.8188 76.395 18.5958 76.618 18.3329C76.8399 18.0654 77.0059 17.7643 77.1159 17.4295C77.2306 17.0937 77.2805 16.7285 77.2658 16.3341L80.3058 15.6743C80.3718 16.3435 80.3148 17.0157 80.1348 17.691C79.9584 18.3606 79.6596 18.9919 79.2382 19.5849C78.8205 20.1723 78.2795 20.6852 77.6153 21.1235C76.9547 21.5562 76.1691 21.8735 75.2584 22.0756C73.9919 22.3565 72.7958 22.3211 71.6702 21.9695C70.5492 21.6167 69.5793 20.9613 68.7605 20.0032C67.9464 19.0441 67.3681 17.7926 67.0256 16.2487C66.682 14.7001 66.681 13.3181 67.0225 12.1026C67.3639 10.8871 67.9708 9.88437 68.8432 9.09432C69.7145 8.29964 70.7742 7.76387 72.0222 7.48701C72.845 7.30448 73.6334 7.25085 74.3873 7.32611C75.1458 7.40035 75.847 7.59884 76.4909 7.9216C77.1337 8.23974 77.6969 8.67982 78.1805 9.24184C78.6687 9.80283 79.0526 10.484 79.3322 11.2852Z" fill="white"/>
<path d="M96.5776 12.6041C96.6129 14.1898 96.3424 15.5456 95.766 16.6714C95.1944 17.7972 94.3991 18.665 93.3803 19.275C92.366 19.8801 91.2175 20.197 89.9347 20.2255C88.6424 20.2543 87.4761 19.9867 86.4358 19.4226C85.3955 18.8585 84.5648 18.0269 83.9435 16.9278C83.3223 15.8287 82.9941 14.4886 82.9588 12.9075C82.9235 11.3218 83.1917 9.96601 83.7633 8.84031C84.335 7.71461 85.1279 6.84919 86.1421 6.24406C87.1563 5.63419 88.3095 5.31486 89.6018 5.28606C90.8846 5.25748 92.0462 5.52523 93.0864 6.08931C94.1314 6.64856 94.9644 7.47774 95.5857 8.57687C96.2116 9.67588 96.5423 11.0183 96.5776 12.6041ZM93.4605 12.6735C93.4376 11.6463 93.2645 10.7835 92.941 10.085C92.6224 9.38645 92.1821 8.8611 91.6201 8.50894C91.0581 8.15679 90.4056 7.989 89.6624 8.00556C88.9192 8.02212 88.2747 8.21882 87.729 8.59565C87.1833 8.97249 86.7645 9.51699 86.4725 10.2292C86.1852 10.9412 86.0531 11.8109 86.076 12.8381C86.0988 13.8653 86.2696 14.7282 86.5883 15.4267C86.9117 16.1252 87.3544 16.6505 87.9164 17.0027C88.4783 17.3548 89.1309 17.5226 89.8741 17.506C90.6173 17.4895 91.2617 17.2928 91.8074 16.9159C92.3531 16.5391 92.7696 15.9947 93.0569 15.2826C93.3488 14.5704 93.4834 13.7007 93.4605 12.6735Z" fill="white"/>
<path d="M100.888 5.48483L104.611 6.21053L106.672 16.5691L106.84 16.6018L112.641 7.77607L116.364 8.50177L113.581 22.7785L110.653 22.2077L112.464 12.9153L112.346 12.8922L106.853 21.3946L104.859 21.006L102.969 11.0281L102.851 11.005L101.033 20.3323L98.1048 19.7615L100.888 5.48483Z" fill="white"/>
<path d="M115.749 23.6417L121.329 10.2091L126.629 12.4105C127.647 12.8337 128.434 13.3889 128.99 14.0759C129.547 14.7586 129.871 15.5213 129.962 16.364C130.059 17.2041 129.922 18.0702 129.552 18.9622C129.181 19.8542 128.662 20.5614 127.994 21.0837C127.326 21.6059 126.548 21.9056 125.659 21.9827C124.775 22.0616 123.818 21.8867 122.786 21.4581L119.408 20.0549L120.353 17.779L123.272 18.9914C123.818 19.2185 124.308 19.3115 124.74 19.2706C125.179 19.2272 125.555 19.0734 125.87 18.8094C126.191 18.5428 126.443 18.1887 126.627 17.7471C126.812 17.3011 126.884 16.8747 126.843 16.4679C126.808 16.0585 126.649 15.6876 126.367 15.355C126.086 15.018 125.671 14.7351 125.12 14.5062L123.204 13.7107L118.589 24.8214L115.749 23.6417Z" fill="white"/>
<path d="M128.547 29.4186L125.768 27.6477L137.818 18.0791L141.161 20.2087L137.573 35.17L134.794 33.3992L137.751 21.9776L137.656 21.9165L128.547 29.4186ZM131.445 24.4862L138.01 28.6691L136.72 30.6936L130.155 26.5107L131.445 24.4862Z" fill="white"/>
<path d="M156.914 33.4422L146.906 43.9974L144.979 42.1698L146.685 31.1724L146.608 31.0991L140.309 37.7425L138.077 35.6266L148.085 25.0713L150.044 26.9283L148.306 37.8863L148.399 37.9743L154.693 31.336L156.914 33.4422Z" fill="white"/>
<path d="M159.283 35.9765L161.278 38.7843L158.093 45.1165L158.175 45.2323L165.203 44.3075L167.198 47.1153L156.46 48.2375L152.268 51.216L150.499 48.7266L154.691 45.7481L159.283 35.9765Z" fill="white"/>
</svg>
